<svg xmlns="http://www.w3.org/2000/svg" width="64" height="64" viewBox="0 0 64 64" fill="none">
  <rect x="8" y="10" width="38" height="44" rx="5" fill="#E8F2F8" stroke="#1769AA" stroke-width="2.4"/>
  <path d="M17 22h20M17 30h12M17 44v-6M25 44V34M33 44V27" stroke="#1769AA" stroke-width="2.4" stroke-linecap="round"/>
  <circle cx="47" cy="43" r="11" fill="#D8F2EC" stroke="#16A085" stroke-width="2.4"/>
  <path d="M47 36v14M51 39.5c-1-1-2.2-1.5-4-1.5-2 0-3.5 1.1-3.5 2.7 0 4 7.5 1.7 7.5 5.5 0 1.6-1.5 2.8-3.8 2.8-1.8 0-3.2-.6-4.2-1.6" stroke="#16A085" stroke-width="1.8" stroke-linecap="round"/>
</svg>
